<?xml version="1.0" standalone="no"?><!DOCTYPE svg PUBLIC "-//W3C//DTD SVG 1.1//EN" "http://www.w3.org/Graphics/SVG/1.1/DTD/svg11.dtd"><svg t="1725516447342" class="icon" viewBox="0 0 1024 1024" version="1.1" xmlns="http://www.w3.org/2000/svg" p-id="10608" xmlns:xlink="http://www.w3.org/1999/xlink" width="200" height="200"><path d="M333.2 800H100c-22.9 0-40-21.5-35.2-44.4l94.5-453.9c9.4-45.3 48.6-77.6 93.9-77.6H467c22.9 0 40 21.5 35.2 44.4l-98.6 473.4c-7.1 33.8-36.4 58.1-70.4 58.1z" fill="#DD2C34" p-id="10609"></path><path d="M540.6 800H307.5c-22.9 0-40-21.5-35.2-44.4l94.5-453.9c9.4-45.3 48.6-77.6 93.9-77.6h213.8c22.9 0 40 21.5 35.2 44.4l-98.6 473.4c-7.1 33.8-36.5 58.1-70.5 58.1z" fill="#01488A" p-id="10610"></path><path d="M790.2 800H557c-22.9 0-40-21.5-35.2-44.4l94.5-453.9c9.4-45.3 48.6-77.6 93.9-77.6H924c22.9 0 40 21.5 35.2 44.4l-98.6 473.4c-7.1 33.8-36.4 58.1-70.4 58.1z" fill="#008189" p-id="10611"></path><path d="M185.5 392.1h21.7l-12 69.1-3 17c-0.2 1.4-0.3 2.8-0.3 4.1 0 5 1.5 9.2 4.6 12.5 3.1 3.3 7.5 4.9 13.3 4.9 5.2 0 9.6-1.2 13-3.6 3.4-2.4 6.1-5.9 7.9-10.6 1.9-4.7 3.8-12.6 5.7-23.9l12.1-69.5h21.7l-12 69.6c-2.5 14.6-5.5 25.8-8.8 33.6-3.3 7.8-8.3 14.1-15.1 18.9-6.7 4.9-15.2 7.3-25.5 7.3-12.3 0-21.7-3.6-28.2-10.9-6.5-7.3-9.8-16.6-9.8-28 0-2.4 0.2-4.9 0.5-7.7 0.2-1.9 1-7.1 2.5-15.8l11.7-67zM290.4 427.2H310l-2 12c4.9-5.1 9.5-8.7 13.7-10.9 4.3-2.2 8.7-3.3 13.4-3.3 6.3 0 11.3 2.2 14.9 6.5 3.6 4.3 5.4 10.1 5.4 17.3 0 3.2-0.8 9.4-2.4 18.4l-9 52.1h-20.7l9.1-52.3c1.3-7.8 2-12.5 2-14 0-3.2-0.8-5.7-2.3-7.5-1.6-1.8-3.7-2.7-6.5-2.7-3 0-6.4 1.5-10.1 4.6-3.7 3.1-6.6 7.1-8.7 12.1-1.5 3.6-3.3 10.9-5.2 22l-6.6 37.8h-20.7l16.1-92.1zM384.6 427.2h20.7l-16 92.1h-20.7l16-92.1z m6-35.1h20.7l-3.9 22.6h-20.7l3.9-22.6zM416.9 481.1c0-17.1 4-30.7 12-40.8 8-10.2 18.5-15.2 31.5-15.2 11.3 0 20.1 3.7 26.4 11.2 6.3 7.5 9.5 17.6 9.5 30.2 0 14.9-4 27.8-11.9 38.7-7.9 10.9-18.5 16.3-31.9 16.3-7.2 0-13.6-1.7-19.2-5.2s-9.7-8.4-12.5-14.8c-2.6-6.3-3.9-13.1-3.9-20.4z m58.9-17.8c0-5.9-1.4-10.6-4.3-14.2-2.9-3.6-6.5-5.3-11.1-5.3-4.5 0-8.4 1.7-11.9 5s-6.1 8.2-8.1 14.5c-1.9 6.3-2.9 12.2-2.9 17.5 0 6.6 1.5 11.8 4.5 15.7 3 3.9 6.7 5.8 11.2 5.8 5.7 0 10.4-2.9 14.3-8.8 5.6-8.3 8.3-18.3 8.3-30.2zM524.6 427.2h19.6l-2 12c4.9-5.1 9.5-8.7 13.7-10.9 4.3-2.2 8.7-3.3 13.4-3.3 6.3 0 11.3 2.2 14.9 6.5 3.6 4.3 5.4 10.1 5.4 17.3 0 3.2-0.8 9.4-2.4 18.4l-9 52.1h-20.7l9.1-52.3c1.3-7.8 2-12.5 2-14 0-3.2-0.8-5.7-2.3-7.5-1.6-1.8-3.7-2.7-6.5-2.7-3 0-6.4 1.5-10.1 4.6-3.7 3.1-6.6 7.1-8.7 12.1-1.5 3.6-3.3 10.9-5.2 22l-6.6 37.8h-20.7l16.1-92.1zM624.5 519.3h-21.8l22.1-127.2h43c7.6 0 13.7 1.1 18.1 3.3 4.4 2.2 8 5.8 10.6 10.8 2.6 5 3.9 11 3.9 17.9 0 6.4-1 12.7-3.1 18.7-2.1 6.1-4.6 10.9-7.6 14.6-3 3.6-6.2 6.4-9.7 8.3-3.5 1.9-8.1 3.3-14 4.3-3.4 0.6-9.8 0.9-19.2 0.9H633l-8.5 48.4z m12.1-69.5h6.7c11.5 0 19.1-0.9 23-2.6 3.8-1.7 6.9-4.5 9.1-8.3 2.2-3.8 3.3-8 3.3-12.6 0-3.1-0.6-5.6-1.7-7.5-1.1-2-2.7-3.4-4.8-4.3-2-0.9-6.6-1.3-13.7-1.3H643l-6.4 36.6zM734.6 453.3l-20.2-2.1c2.3-8.2 6.3-14.6 12.1-19.3 5.7-4.6 13.3-6.9 22.8-6.9 9.8 0 17.1 2.4 21.8 7.2 4.7 4.8 7.1 10.6 7.1 17.5 0 2.8-0.2 5.7-0.6 8.9-0.4 3.1-1.8 11.3-4.3 24.6-2 11-3 18.7-3 23.1 0 3.9 0.6 8.3 1.7 13.1h-20.1c-0.8-3.4-1.3-6.8-1.5-10.4-3 4-6.5 7.2-10.5 9.3-3.9 2.2-7.9 3.3-11.9 3.3-6.3 0-11.6-2.5-15.7-7.5s-6.2-11.4-6.2-19.3c0-8.8 2.3-15.8 6.8-21.1 4.5-5.3 12.6-8.4 24.3-9.5 9.8-1 16.4-2.2 19.7-3.6 0.9-3.5 1.3-6.2 1.3-8.3 0-2.7-0.9-4.9-2.7-6.7-1.8-1.8-4.4-2.7-7.9-2.7-3.7 0-6.6 0.9-8.8 2.7s-3.4 4.4-4.2 7.7z m19.7 23.1c-1.2 0.4-2.9 0.8-5 1.1-10.4 1.5-17.2 3.7-20.3 6.6-2.3 2.1-3.4 4.9-3.4 8.4 0 2.9 0.9 5.3 2.6 7.3 1.7 2 4 3 6.8 3 3.1 0 6.1-0.9 8.8-2.7s4.8-4.2 6.2-7c1.4-2.9 2.6-7.3 3.6-13.4l0.7-3.3zM798.2 427.2h20.6l5.2 45.9c1.3 11.8 2 20.1 2.2 24.8 2.7-9.4 6.4-19.4 11.1-29.8l18.3-40.9h21.9l-47.3 101.2c-3.9 8.4-7 14.3-9.2 17.6-2.2 3.4-4.9 6-8.1 7.9-3.1 1.9-6.9 2.9-11.4 2.9-4.4 0-9.3-0.9-14.8-2.8l1.8-18.6c2.5 0.9 4.9 1.3 7.3 1.3 6.3 0 11.6-5.8 15.6-17.4l-13.2-92.1z" fill="#FFFFFF" p-id="10612"></path><path d="M491.9 660.3c-1.1 4.5-2 8.6-2.6 12.4-9.5 4.2-19.9 9.2-31.3 15.1-3.4 1.8-6.7 3.9-10 6.3l-6.1-10.5c4.7-3.3 7.6-7.1 8.8-11.4l9.5-33.9h-23.5l2.9-10.5h23.5l6.2-22.3h-11.6l2.9-10.4c-2.5 2.5-5.1 5-7.7 7.3-1.1-3.7-2.6-7.1-4.5-10.4 15.1-13.9 28.3-29.6 39.7-47.1l11.5 3.7c-4.8 6.9-9.8 13.5-15 19.8h31.5l-2.9 10.5h-37.5c-4.9 5.6-9.9 10.9-15.1 16h44l-2.9 10.5h-20l-6.2 22.3h24.8l-2.9 10.5h-24.8l-10.1 36.3c8.1-3.8 17.9-8.6 29.4-14.2zM594 631.4l6.3 8.8c-13.1 7-26 13.5-38.7 19.5 7.7 9.8 19.1 16.7 34.3 20.7-4.7 4.3-8.8 8.1-12.1 11.6-30.1-11.1-45.5-32.8-46.1-65.3h-16.1l-13.9 49.7c10.2-3.9 21.5-8.4 33.8-13.7-1.2 4.7-2.1 8.8-2.6 12.4-9.8 3.8-22.2 8.9-37 15.4-1.9 0.9-4.7 2.6-8.6 5.2l-6.1-10.5c4.6-3.4 7.5-7.1 8.6-11.3l34-121.7h84.7l-21.9 78.4H580l1.1-3.8h-31c0.6 9.6 2.8 17.9 6.5 25.2 13-6.5 25.4-13.4 37.4-20.6z m-10-15l6.1-22h-59.6l-6.1 22H584z m15-53.8h-59.6l-6.1 21.8h59.6l6.1-21.8zM627.1 661.1c4.5-0.6 9-1.2 13.5-1.9l25.9-92.6h-11.1l3-10.7h74l-3 10.7h-12.8l-23.7 84.8c5.4-0.9 10.9-1.7 16.3-2.6-0.9 4.2-1.5 7.7-1.8 10.7-5.7 1-11.6 2-17.6 3l-9 32.3h-12.5l8.4-30c-15.4 2.6-32 5.5-49.7 8.6l0.1-12.3z m52.7-7.7l6-21.6h-25l-7.1 25.5 26.1-3.9z m-16.1-31.9h25l6.2-22.3h-25l-6.2 22.3z m9.1-32.7h25l6.2-22.3h-25l-6.2 22.3z m35.9 27.3h39.5c2.5-7.4 5.3-16.6 8.3-27.6h-35.3l3.2-11.3h46.2c7.2-7.3 16.9-18 29.2-32.2l11.8 5.6c-9.8 9.8-18.9 18.7-27.2 26.5H813l-3.2 11.3h-40.1c-3.1 11-5.9 20.2-8.3 27.6h46.5l-3.2 11.3H760c1.9 24.3 12.6 42.3 32 54.1-5.1 3.7-9.8 7.5-14.2 11.4-16.4-13.7-25.9-30.8-28.4-51.4-12.4 21.8-31.2 39.4-56.4 52.9-2.4-4-4.7-7.3-6.8-9.9C713.7 671 733 652 744 627.2h-38.5l3.2-11.1z m29.4-64.8l11.7-6.3c4.9 6.9 9.2 14.5 13 22.7l-13 6.9c-2.9-7-6.8-14.8-11.7-23.3z" fill="#FFFFFF" p-id="10613"></path></svg>