<?xml version="1.0" standalone="no"?><!DOCTYPE svg PUBLIC "-//W3C//DTD SVG 1.1//EN" "http://www.w3.org/Graphics/SVG/1.1/DTD/svg11.dtd"><svg t="1725516415347" class="icon" viewBox="0 0 1024 1024" version="1.1" xmlns="http://www.w3.org/2000/svg" p-id="9373" xmlns:xlink="http://www.w3.org/1999/xlink" width="200" height="200"><path d="M858.158416 0.964997H163.360355C73.202035 1.792138 0.551524 75.26979 0.68938 165.42811v693.55735c0 90.296177 73.201939 163.498115 163.498116 163.635972h694.660204c90.296177-0.41357 163.222402-73.477652 163.498115-163.773828V165.42811C1021.794388 74.994076 948.730307 1.654281 858.158416 0.964997z" fill="#347AEA" p-id="9374"></path><path d="M707.48098 601.469036c59.829833-108.355412 81.335487-211.747981 81.335487-211.747981H587.683457v-76.234787h238.905762v-32.809908H587.683457v-114.007539h-109.044696v114.007539H261.37651v32.809908h217.400108v76.234787H294.186419v32.809909h374.970382c0 5.652127 0 5.652127-5.652127 10.752827 0 37.772752-27.157781 92.088314-49.077006 136.06462-276.678514-109.044696-358.565428-43.424879-380.071083-32.809908-184.590199 130.412493-10.752827 293.634895 16.404955 287.982768C445.966709 868.084006 571.416359 786.748519 658.266117 683.35595c5.652127 5.652127 10.752827 5.652127 16.404954 5.652128 59.829833 32.809908 347.812601 168.323102 347.812601 168.323101V694.108778c-43.424879-0.551427-200.995153-54.729133-315.002692-92.639742z m-141.165321 48.525579c-136.06462 173.975229-298.735595 119.659666-325.755519 108.355412-64.930533-16.404954-86.987614-136.06462-5.652128-173.975229 136.06462-43.424879 255.172859 5.652127 342.160474 49.077006-5.652127 11.579968-10.752827 16.542811-10.752827 16.542811z m0 0" fill="#FFFFFF" p-id="9375"></path></svg>